<svg width="1600" height="500" viewBox="0 0 1600 500" fill="none" xmlns="http://www.w3.org/2000/svg">
  <defs>
    <linearGradient id="bg" x1="0" y1="0" x2="1600" y2="500" gradientUnits="userSpaceOnUse">
      <stop stop-color="#022C22" />
      <stop offset="0.5" stop-color="#0F766E" />
      <stop offset="1" stop-color="#134E4A" />
    </linearGradient>
    <radialGradient id="glow" cx="0" cy="0" r="1" gradientUnits="userSpaceOnUse" gradientTransform="translate(1240 110) rotate(145) scale(560 260)">
      <stop stop-color="#5EEAD4" stop-opacity="0.5" />
      <stop offset="1" stop-color="#5EEAD4" stop-opacity="0" />
    </radialGradient>
  </defs>
  <rect width="1600" height="500" fill="url(#bg)" />
  <rect width="1600" height="500" fill="url(#glow)" />
  <path d="M0 348C142 312 283 277 427 289C571 301 712 360 857 364C1001 368 1142 317 1285 303C1388 293 1492 304 1600 326V500H0V348Z" fill="#34D399" fill-opacity="0.16" />
  <path d="M0 391C129 356 260 324 393 328C527 332 661 372 797 377C934 382 1067 351 1201 341C1334 331 1466 343 1600 362V500H0V391Z" fill="#99F6E4" fill-opacity="0.14" />
</svg>
