<svg width="1200" height="900" viewBox="0 0 1200 900" fill="none" xmlns="http://www.w3.org/2000/svg">
  <defs>
    <linearGradient id="bg-gba" x1="90" y1="100" x2="1080" y2="850" gradientUnits="userSpaceOnUse">
      <stop stop-color="#081223"/>
      <stop offset="0.48" stop-color="#161533"/>
      <stop offset="1" stop-color="#05070F"/>
    </linearGradient>
    <linearGradient id="crate-gba" x1="286" y1="172" x2="924" y2="674" gradientUnits="userSpaceOnUse">
      <stop stop-color="#D2D8EA"/>
      <stop offset="1" stop-color="#596178"/>
    </linearGradient>
    <linearGradient id="accent-gba" x1="322" y1="216" x2="874" y2="612" gradientUnits="userSpaceOnUse">
      <stop stop-color="#5CE7FF"/>
      <stop offset="1" stop-color="#D16AFF"/>
    </linearGradient>
  </defs>
  <rect width="1200" height="900" rx="48" fill="url(#bg-gba)"/>
  <ellipse cx="600" cy="770" rx="352" ry="66" fill="#040710" fill-opacity="0.62"/>
  <rect x="210" y="720" width="780" height="10" rx="5" fill="#62E4FF" fill-opacity="0.3"/>
  <rect x="282" y="184" width="636" height="438" rx="42" fill="url(#crate-gba)" stroke="url(#accent-gba)" stroke-width="4"/>
  <rect x="320" y="224" width="560" height="360" rx="30" fill="#10172A"/>
  <rect x="350" y="258" width="500" height="126" rx="24" fill="#121F37" stroke="#5CE7FF" stroke-opacity="0.24"/>
  <rect x="398" y="420" width="404" height="118" rx="50" fill="#6C7396" stroke="#D7DCEF" stroke-opacity="0.35"/>
  <rect x="470" y="442" width="260" height="74" rx="16" fill="#121A2E"/>
  <rect x="430" y="454" width="34" height="34" rx="6" fill="#DEE3EE"/>
  <rect x="744" y="454" width="26" height="26" rx="13" fill="#EDEFF4"/>
  <rect x="784" y="454" width="26" height="26" rx="13" fill="#EDEFF4"/>
  <circle cx="748" cy="502" r="8" fill="#FBBF24"/>
  <circle cx="774" cy="502" r="8" fill="#60A5FA"/>
  <circle cx="800" cy="502" r="8" fill="#F472B6"/>
  <circle cx="600" cy="336" r="72" fill="#6BE7FF" fill-opacity="0.14"/>
  <circle cx="600" cy="336" r="44" fill="#8B5CF6" fill-opacity="0.28"/>
  <circle cx="600" cy="336" r="18" fill="#E7FAFF"/>
  <rect x="318" y="138" width="216" height="42" rx="21" fill="#0E182C" stroke="#5EDFFF" stroke-opacity="0.35"/>
  <text x="426" y="164" fill="#D8F8FF" font-family="Arial, Helvetica, sans-serif" font-size="18" text-anchor="middle" letter-spacing="3">SERVICE CRATE</text>
  <rect x="696" y="138" width="190" height="42" rx="21" fill="#131226" stroke="#E472FF" stroke-opacity="0.35"/>
  <text x="791" y="164" fill="#F8E7FF" font-family="Arial, Helvetica, sans-serif" font-size="18" text-anchor="middle" letter-spacing="3">AR-GBA-21</text>
  <rect x="356" y="668" width="488" height="20" rx="10" fill="#0D1529" stroke="#233357"/>
  <rect x="356" y="668" width="440" height="20" rx="10" fill="url(#accent-gba)"/>
  <text x="600" y="816" fill="#A7C6DF" font-family="Arial, Helvetica, sans-serif" font-size="28" text-anchor="middle">Caja abierta de servicio · handheld ya revelada y trazada</text>
</svg>
