<svg width="1200" height="900" viewBox="0 0 1200 900" fill="none" xmlns="http://www.w3.org/2000/svg">
  <defs>
    <linearGradient id="bg-nes" x1="80" y1="100" x2="1100" y2="840" gradientUnits="userSpaceOnUse">
      <stop stop-color="#0A1120"/>
      <stop offset="0.52" stop-color="#1B1532"/>
      <stop offset="1" stop-color="#05070E"/>
    </linearGradient>
    <linearGradient id="crate-nes" x1="274" y1="180" x2="926" y2="676" gradientUnits="userSpaceOnUse">
      <stop stop-color="#D7DEE6"/>
      <stop offset="1" stop-color="#4E5568"/>
    </linearGradient>
    <linearGradient id="frame-nes" x1="316" y1="232" x2="878" y2="612" gradientUnits="userSpaceOnUse">
      <stop stop-color="#61E2FF"/>
      <stop offset="1" stop-color="#EF5FFF"/>
    </linearGradient>
  </defs>
  <rect width="1200" height="900" rx="48" fill="url(#bg-nes)"/>
  <ellipse cx="600" cy="770" rx="360" ry="68" fill="#040710" fill-opacity="0.62"/>
  <rect x="210" y="720" width="780" height="10" rx="5" fill="#62E4FF" fill-opacity="0.28"/>
  <rect x="264" y="186" width="672" height="444" rx="38" fill="url(#crate-nes)" stroke="url(#frame-nes)" stroke-width="4"/>
  <rect x="302" y="224" width="596" height="368" rx="28" fill="#121A2E"/>
  <rect x="324" y="248" width="552" height="86" rx="20" fill="#E8EDF2"/>
  <rect x="712" y="248" width="132" height="86" rx="16" fill="#0D1324"/>
  <rect x="728" y="264" width="100" height="16" rx="8" fill="#6A7487"/>
  <rect x="728" y="290" width="100" height="16" rx="8" fill="#6A7487"/>
  <rect x="728" y="316" width="100" height="16" rx="8" fill="#6A7487"/>
  <rect x="324" y="358" width="552" height="210" rx="24" fill="#0A0F1C" stroke="#B2BCCA" stroke-opacity="0.18"/>
  <rect x="368" y="404" width="190" height="108" rx="20" fill="#171D31" stroke="#61E2FF" stroke-opacity="0.24"/>
  <rect x="576" y="404" width="252" height="108" rx="20" fill="#13172A" stroke="#F472B6" stroke-opacity="0.24"/>
  <rect x="408" y="266" width="170" height="12" rx="6" fill="#C6CDD8"/>
  <circle cx="408" cy="302" r="10" fill="#8B5CF6"/>
  <circle cx="440" cy="302" r="10" fill="#60A5FA"/>
  <circle cx="472" cy="302" r="10" fill="#F59E0B"/>
  <circle cx="504" cy="302" r="10" fill="#FB7185"/>
  <rect x="320" y="140" width="244" height="42" rx="21" fill="#0E182C" stroke="#5EDFFF" stroke-opacity="0.35"/>
  <text x="442" y="166" fill="#D8F8FF" font-family="Arial, Helvetica, sans-serif" font-size="18" text-anchor="middle" letter-spacing="3">MUSEUM CONTAINER</text>
  <rect x="710" y="140" width="184" height="42" rx="21" fill="#131226" stroke="#E472FF" stroke-opacity="0.35"/>
  <text x="802" y="166" fill="#F8E7FF" font-family="Arial, Helvetica, sans-serif" font-size="18" text-anchor="middle" letter-spacing="3">AR-NES-03</text>
  <rect x="356" y="668" width="488" height="20" rx="10" fill="#0D1529" stroke="#233357"/>
  <rect x="356" y="668" width="364" height="20" rx="10" fill="url(#frame-nes)"/>
  <text x="600" y="816" fill="#A7C6DF" font-family="Arial, Helvetica, sans-serif" font-size="28" text-anchor="middle">Contenedor de archivo retro · lote documental de museo</text>
</svg>
